<?xml version="1.0" encoding="utf-8" standalone="no"?>
<!DOCTYPE svg PUBLIC "-//W3C//DTD SVG 1.1//EN"
  "http://www.w3.org/Graphics/SVG/1.1/DTD/svg11.dtd">
<svg xmlns:xlink="http://www.w3.org/1999/xlink" width="1200" height="800" viewBox="0 0 1200 800" xmlns="http://www.w3.org/2000/svg" version="1.1">
 <title>题 7.1 图</title>
 <metadata>
  <rdf:RDF xmlns:dc="http://purl.org/dc/elements/1.1/" xmlns:cc="http://creativecommons.org/ns#" xmlns:rdf="http://www.w3.org/1999/02/22-rdf-syntax-ns#">
   <cc:Work>
    <dc:type rdf:resource="http://purl.org/dc/dcmitype/StillImage"/>
    <dc:title>题 7.1 图</dc:title>
    <dc:date>2026-08-02T21:14:04.068683</dc:date>
    <dc:format>image/svg+xml</dc:format>
    <dc:creator>
     <cc:Agent>
      <dc:title>LUNA Python redraw</dc:title>
     </cc:Agent>
    </dc:creator>
   </cc:Work>
  </rdf:RDF>
 </metadata>
 <defs>
  <style type="text/css">*{stroke-linejoin: round; stroke-linecap: butt}</style>
 </defs>
<g transform="translate(146.889117,24.000000) scale(2.680812)">

 <g id="figure_1">
  <g id="patch_1">
   <path d="M 0 280.512
L 338.04 280.512
L 338.04 0
L 0 0
z
" style="fill: #ffffff"/>
  </g>
  <g id="axes_1">
   <g id="patch_2">
    <path d="M 226.223133 65.74464
Q 169.021704 65.74464 113.050113 65.74464
" style="fill: none; stroke: #6b6a78; stroke-width: 1.1; stroke-linecap: round"/>
    <path d="M 117.850113 68.14464
L 113.050113 65.74464
L 117.850113 63.34464
z
" style="fill: #6b6a78; stroke: #6b6a78; stroke-width: 1.1; stroke-linecap: round"/>
   </g>
   <g id="patch_3">
    <path d="M 97.8192 179.480233
Q 97.8192 129.611577 97.8192 80.972758
" style="fill: none; stroke: #6b6a78; stroke-width: 1.1; stroke-linecap: round"/>
    <path d="M 95.4192 85.772758
L 97.8192 80.972758
L 100.2192 85.772758
z
" style="fill: #6b6a78; stroke: #6b6a78; stroke-width: 1.1; stroke-linecap: round"/>
   </g>
   <g id="patch_4">
    <path d="M 158.792273 122.716143
Q 133.420009 99.009022 108.946359 76.141541
" style="fill: none; stroke: #6b6a78; stroke-width: 1.1; stroke-linecap: round"/>
    <path d="M 110.815071 81.172238
L 108.946359 76.141541
L 114.092144 77.66499
z
" style="fill: #6b6a78; stroke: #6b6a78; stroke-width: 1.1; stroke-linecap: round"/>
   </g>
   <g id="patch_5">
    <path d="M 179.247727 122.716143
Q 204.619991 99.009022 229.093641 76.141541
" style="fill: none; stroke: #6b6a78; stroke-width: 1.1; stroke-linecap: round"/>
    <path d="M 223.947856 77.66499
L 229.093641 76.141541
L 227.224929 81.172238
z
" style="fill: #6b6a78; stroke: #6b6a78; stroke-width: 1.1; stroke-linecap: round"/>
   </g>
   <g id="patch_6">
    <path d="M 240.2208 179.480233
Q 240.2208 129.611577 240.2208 80.972758
" style="fill: none; stroke: #6b6a78; stroke-width: 1.1; stroke-linecap: round"/>
    <path d="M 237.8208 85.772758
L 240.2208 80.972758
L 242.6208 85.772758
z
" style="fill: #6b6a78; stroke: #6b6a78; stroke-width: 1.1; stroke-linecap: round"/>
   </g>
   <g id="patch_7">
    <path d="M 158.405501 141.397095
Q 133.420678 162.874594 109.368473 183.550393
" style="fill: none; stroke: #6b6a78; stroke-width: 1.1; stroke-linecap: round"/>
    <path d="M 114.572941 182.24138
L 109.368473 183.550393
L 111.443944 178.601411
z
" style="fill: #6b6a78; stroke: #6b6a78; stroke-width: 1.1; stroke-linecap: round"/>
   </g>
   <g id="patch_8">
    <path d="M 111.816867 193.4784
Q 169.018296 193.4784 224.989887 193.4784
" style="fill: none; stroke: #6b6a78; stroke-width: 1.1; stroke-linecap: round"/>
    <path d="M 220.189887 191.0784
L 224.989887 193.4784
L 220.189887 195.8784
z
" style="fill: #6b6a78; stroke: #6b6a78; stroke-width: 1.1; stroke-linecap: round"/>
   </g>
   <g id="patch_9">
    <path d="M 229.606301 184.353945
Q 204.621478 162.876446 180.569273 142.200647
" style="fill: none; stroke: #6b6a78; stroke-width: 1.1; stroke-linecap: round"/>
    <path d="M 182.644744 147.149629
L 180.569273 142.200647
L 185.773741 143.50966
z
" style="fill: #6b6a78; stroke: #6b6a78; stroke-width: 1.1; stroke-linecap: round"/>
   </g>
   <g id="patch_10">
    <path d="M 158.205596 243.13093
Q 133.421153 222.751997 109.586656 203.154154
" style="fill: none; stroke: #6b6a78; stroke-width: 1.1; stroke-linecap: round"/>
    <path d="M 111.769973 208.056514
L 109.586656 203.154154
L 114.818533 204.348916
z
" style="fill: #6b6a78; stroke: #6b6a78; stroke-width: 1.1; stroke-linecap: round"/>
   </g>
   <g id="patch_11">
    <path d="M 169.02 238.02268
Q 169.02 192.149147 169.02 147.505451
" style="fill: none; stroke: #6b6a78; stroke-width: 1.1; stroke-linecap: round"/>
    <path d="M 166.62 152.305451
L 169.02 147.505451
L 171.42 152.305451
z
" style="fill: #6b6a78; stroke: #6b6a78; stroke-width: 1.1; stroke-linecap: round"/>
   </g>
   <g id="patch_12">
    <path d="M 229.406396 202.37051
Q 204.621953 222.749443 180.787456 242.347286
" style="fill: none; stroke: #6b6a78; stroke-width: 1.1; stroke-linecap: round"/>
    <path d="M 186.019333 241.152524
L 180.787456 242.347286
L 182.970773 237.444926
z
" style="fill: #6b6a78; stroke: #6b6a78; stroke-width: 1.1; stroke-linecap: round"/>
   </g>
   <g id="patch_13">
    <path d="M 97.8192 77.71968
C 101.681565 77.71968 105.386257 76.457914 108.117362 74.212272
C 110.848466 71.96663 112.383 68.920458 112.383 65.74464
C 112.383 62.568822 110.848466 59.52265 108.117362 57.277008
C 105.386257 55.031366 101.681565 53.7696 97.8192 53.7696
C 93.956835 53.7696 90.252143 55.031366 87.521038 57.277008
C 84.789934 59.52265 83.2554 62.568822 83.2554 65.74464
C 83.2554 68.920458 84.789934 71.96663 87.521038 74.212272
C 90.252143 76.457914 93.956835 77.71968 97.8192 77.71968
z
" style="fill: #f7f7fa; stroke: #4d4d5c; stroke-width: 1.2; stroke-linejoin: miter"/>
   </g>
   <g id="patch_14">
    <path d="M 240.2208 77.71968
C 244.083165 77.71968 247.787857 76.457914 250.518962 74.212272
C 253.250066 71.96663 254.7846 68.920458 254.7846 65.74464
C 254.7846 62.568822 253.250066 59.52265 250.518962 57.277008
C 247.787857 55.031366 244.083165 53.7696 240.2208 53.7696
C 236.358435 53.7696 232.653743 55.031366 229.922638 57.277008
C 227.191534 59.52265 225.657 62.568822 225.657 65.74464
C 225.657 68.920458 227.191534 71.96663 229.922638 74.212272
C 232.653743 76.457914 236.358435 77.71968 240.2208 77.71968
z
" style="fill: #f7f7fa; stroke: #4d4d5c; stroke-width: 1.2; stroke-linejoin: miter"/>
   </g>
   <g id="patch_15">
    <path d="M 169.02 144.24768
C 172.882365 144.24768 176.587057 142.985914 179.318162 140.740272
C 182.049266 138.49463 183.5838 135.448458 183.5838 132.27264
C 183.5838 129.096822 182.049266 126.05065 179.318162 123.805008
C 176.587057 121.559366 172.882365 120.2976 169.02 120.2976
C 165.157635 120.2976 161.452943 121.559366 158.721838 123.805008
C 155.990734 126.05065 154.4562 129.096822 154.4562 132.27264
C 154.4562 135.448458 155.990734 138.49463 158.721838 140.740272
C 161.452943 142.985914 165.157635 144.24768 169.02 144.24768
z
" style="fill: #f7f7fa; stroke: #4d4d5c; stroke-width: 1.2; stroke-linejoin: miter"/>
   </g>
   <g id="patch_16">
    <path d="M 97.8192 205.45344
C 101.681565 205.45344 105.386257 204.191674 108.117362 201.946032
C 110.848466 199.70039 112.383 196.654218 112.383 193.4784
C 112.383 190.302582 110.848466 187.25641 108.117362 185.010768
C 105.386257 182.765126 101.681565 181.50336 97.8192 181.50336
C 93.956835 181.50336 90.252143 182.765126 87.521038 185.010768
C 84.789934 187.25641 83.2554 190.302582 83.2554 193.4784
C 83.2554 196.654218 84.789934 199.70039 87.521038 201.946032
C 90.252143 204.191674 93.956835 205.45344 97.8192 205.45344
z
" style="fill: #f7f7fa; stroke: #4d4d5c; stroke-width: 1.2; stroke-linejoin: miter"/>
   </g>
   <g id="patch_17">
    <path d="M 240.2208 205.45344
C 244.083165 205.45344 247.787857 204.191674 250.518962 201.946032
C 253.250066 199.70039 254.7846 196.654218 254.7846 193.4784
C 254.7846 190.302582 253.250066 187.25641 250.518962 185.010768
C 247.787857 182.765126 244.083165 181.50336 240.2208 181.50336
C 236.358435 181.50336 232.653743 182.765126 229.922638 185.010768
C 227.191534 187.25641 225.657 190.302582 225.657 193.4784
C 225.657 196.654218 227.191534 199.70039 229.922638 201.946032
C 232.653743 204.191674 236.358435 205.45344 240.2208 205.45344
z
" style="fill: #f7f7fa; stroke: #4d4d5c; stroke-width: 1.2; stroke-linejoin: miter"/>
   </g>
   <g id="patch_18">
    <path d="M 169.02 263.99808
C 172.882365 263.99808 176.587057 262.736314 179.318162 260.490672
C 182.049266 258.24503 183.5838 255.198858 183.5838 252.02304
C 183.5838 248.847222 182.049266 245.80105 179.318162 243.555408
C 176.587057 241.309766 172.882365 240.048 169.02 240.048
C 165.157635 240.048 161.452943 241.309766 158.721838 243.555408
C 155.990734 245.80105 154.4562 248.847222 154.4562 252.02304
C 154.4562 255.198858 155.990734 258.24503 158.721838 260.490672
C 161.452943 262.736314 165.157635 263.99808 169.02 263.99808
z
" style="fill: #f7f7fa; stroke: #4d4d5c; stroke-width: 1.2; stroke-linejoin: miter"/>
   </g>
   <g id="text_1">
    <!-- 题 7.1 图 -->
    <g transform="translate(140.217187 29.03573) scale(0.14 -0.14)">
     <defs>
      <path id="MicrosoftYaHei-Bold-9898" d="M 406 5091
L 2856 5091
L 2856 2666
L 406 2666
L 406 5091
z
M 2131 4503
L 1131 4503
L 1131 4141
L 2131 4141
L 2131 4503
z
M 2131 3253
L 2131 3616
L 1131 3616
L 1131 3253
L 2131 3253
z
M 3213 3966
L 4041 3966
Q 4084 4219 4116 4453
L 3100 4453
L 3100 5078
L 6169 5078
L 6169 4453
L 4906 4453
Q 4866 4206 4819 3966
L 5981 3966
L 5981 1341
L 5269 1341
L 5269 3341
L 3925 3341
L 3925 1347
L 3213 1347
L 3213 3966
z
M 425 1491
L 1106 1491
Q 1109 1134 1094 822
Q 1238 688 1394 575
L 1394 1753
L 138 1753
L 138 2378
L 3000 2378
L 3000 1753
L 2163 1753
L 2163 1353
L 2906 1353
L 2906 741
L 2163 741
L 2163 178
Q 2594 28 3172 19
Q 2953 347 2713 609
Q 3400 797 3831 1211
Q 4263 1625 4263 2509
L 4263 3072
L 4938 3072
L 4938 2472
Q 4938 1956 4825 1541
Q 5659 1050 6306 591
L 5828 25
L 6319 34
Q 6175 -303 6094 -691
Q 4706 -691 3689 -680
Q 2672 -669 2331 -597
Q 1991 -525 1653 -358
Q 1316 -191 1013 66
Q 909 -544 688 -909
Q 463 -628 75 -266
Q 431 278 425 1491
z
M 3428 16
L 5744 25
Q 5163 506 4544 909
Q 4166 369 3428 16
z
" transform="scale(0.015625)"/>
      <path id="MicrosoftYaHei-Bold-20" transform="scale(0.015625)"/>
      <path id="MicrosoftYaHei-Bold-37" d="M 3675 4225
Q 3088 3172 2798 2528
Q 2509 1884 2328 1275
Q 2147 666 2050 0
L 966 0
Q 1122 947 1517 1917
Q 1913 2888 2609 4009
L 300 4009
L 300 4841
L 3675 4841
L 3675 4225
z
" transform="scale(0.015625)"/>
      <path id="MicrosoftYaHei-Bold-2e" d="M 313 453
Q 313 688 491 838
Q 669 988 916 988
Q 1166 988 1337 834
Q 1509 681 1509 453
Q 1509 213 1337 64
Q 1166 -84 903 -84
Q 659 -84 486 69
Q 313 222 313 453
z
" transform="scale(0.015625)"/>
      <path id="MicrosoftYaHei-Bold-31" d="M 2716 4947
L 2716 0
L 1700 0
L 1700 3809
Q 1513 3647 1188 3517
Q 863 3388 591 3356
L 591 4222
Q 1447 4472 2072 4947
L 2716 4947
z
" transform="scale(0.015625)"/>
      <path id="MicrosoftYaHei-Bold-56fe" d="M 369 -841
L 369 5072
L 6019 5072
L 6019 -834
L 5156 -834
L 5156 -591
L 1231 -591
L 1231 -841
L 369 -841
z
M 4875 3978
L 4875 3466
Q 4547 3022 4006 2678
Q 4513 2541 5156 2463
L 5156 4316
L 3256 4316
Q 3141 4144 3009 3978
L 4875 3978
z
M 2394 4316
L 1231 4316
L 1231 3231
Q 2016 3747 2394 4316
z
M 3228 2959
Q 3666 3163 3919 3416
L 2575 3416
Q 2828 3156 3228 2959
z
M 1644 2747
Q 1481 2925 1231 3147
L 1231 2400
Q 1950 2522 2500 2688
Q 2266 2863 2078 3063
Q 1872 2900 1644 2747
z
M 1669 1303
Q 3319 1084 4775 841
L 4600 166
L 5156 166
L 5156 2388
Q 5019 2159 4825 1822
Q 3897 1978 3219 2275
Q 2872 2134 2472 2019
Q 3509 1888 4500 1722
L 4375 1128
Q 3344 1309 2063 1484
L 2159 1934
Q 1856 1859 1525 1797
Q 1409 2059 1231 2347
L 1231 166
L 4569 166
Q 3297 425 1494 647
L 1669 1303
z
" transform="scale(0.015625)"/>
     </defs>
     <use xlink:href="#MicrosoftYaHei-Bold-9898"/>
     <use xlink:href="#MicrosoftYaHei-Bold-20" transform="translate(100 0)"/>
     <use xlink:href="#MicrosoftYaHei-Bold-37" transform="translate(129.785156 0)"/>
     <use xlink:href="#MicrosoftYaHei-Bold-2e" transform="translate(191.455078 0)"/>
     <use xlink:href="#MicrosoftYaHei-Bold-31" transform="translate(220.019531 0)"/>
     <use xlink:href="#MicrosoftYaHei-Bold-20" transform="translate(281.689453 0)"/>
     <use xlink:href="#MicrosoftYaHei-Bold-56fe" transform="translate(311.474609 0)"/>
    </g>
   </g>
   <g id="text_2">
    <!-- 1 -->
    <g transform="translate(94.887169 68.498546) scale(0.1 -0.1)">
     <defs>
      <path id="MicrosoftYaHei-31" d="M 1781 0
L 1781 4141
Q 1638 3997 1295 3819
Q 953 3641 663 3569
L 663 4169
Q 1047 4275 1484 4508
Q 1922 4741 2156 4947
L 2388 4947
L 2388 0
L 1781 0
z
" transform="scale(0.015625)"/>
     </defs>
     <use xlink:href="#MicrosoftYaHei-31"/>
    </g>
   </g>
   <g id="text_3">
    <!-- 5 -->
    <g transform="translate(237.288769 68.498546) scale(0.1 -0.1)">
     <defs>
      <path id="MicrosoftYaHei-35" d="M 3294 1494
Q 3294 784 2823 350
Q 2353 -84 1559 -84
Q 878 -84 544 119
L 544 744
Q 1034 425 1544 425
Q 2050 425 2361 704
Q 2672 984 2672 1447
Q 2672 1909 2348 2167
Q 2025 2425 1434 2425
Q 978 2425 613 2384
L 791 4841
L 3053 4841
L 3053 4303
L 1306 4303
L 1206 2931
L 1647 2950
Q 2416 2950 2855 2567
Q 3294 2184 3294 1494
z
" transform="scale(0.015625)"/>
     </defs>
     <use xlink:href="#MicrosoftYaHei-35"/>
    </g>
   </g>
   <g id="text_4">
    <!-- 6 -->
    <g transform="translate(166.087969 135.026546) scale(0.1 -0.1)">
     <defs>
      <path id="MicrosoftYaHei-36" d="M 3181 4219
Q 2803 4413 2391 4413
Q 1763 4413 1381 3866
Q 1000 3319 994 2372
L 1009 2372
Q 1353 3038 2106 3038
Q 2734 3038 3109 2628
Q 3484 2219 3484 1541
Q 3484 831 3051 375
Q 2619 -81 1947 -81
Q 1209 -81 789 495
Q 369 1072 369 2131
Q 369 3413 920 4167
Q 1472 4922 2372 4922
Q 2888 4922 3181 4781
L 3181 4219
z
M 1031 1584
Q 1031 1106 1286 765
Q 1541 425 1963 425
Q 2363 425 2613 719
Q 2863 1013 2863 1475
Q 2863 1975 2627 2253
Q 2391 2531 1956 2531
Q 1544 2531 1287 2250
Q 1031 1969 1031 1584
z
" transform="scale(0.015625)"/>
     </defs>
     <use xlink:href="#MicrosoftYaHei-36"/>
    </g>
   </g>
   <g id="text_5">
    <!-- 2 -->
    <g transform="translate(94.887169 196.232306) scale(0.1 -0.1)">
     <defs>
      <path id="MicrosoftYaHei-32" d="M 2666 3572
Q 2666 3963 2419 4186
Q 2172 4409 1747 4409
Q 1447 4409 1140 4256
Q 834 4103 569 3819
L 569 4413
Q 806 4659 1107 4790
Q 1409 4922 1816 4922
Q 2472 4922 2872 4570
Q 3272 4219 3272 3619
Q 3272 3084 3026 2693
Q 2781 2303 2188 1894
Q 1581 1475 1376 1294
Q 1172 1113 1090 947
Q 1009 781 1009 544
L 3416 544
L 3416 0
L 372 0
L 372 241
Q 372 659 486 951
Q 600 1244 862 1520
Q 1125 1797 1681 2184
Q 2250 2584 2458 2886
Q 2666 3188 2666 3572
z
" transform="scale(0.015625)"/>
     </defs>
     <use xlink:href="#MicrosoftYaHei-32"/>
    </g>
   </g>
   <g id="text_6">
    <!-- 4 -->
    <g transform="translate(237.288769 196.232306) scale(0.1 -0.1)">
     <defs>
      <path id="MicrosoftYaHei-34" d="M 2906 4841
L 2906 1644
L 3631 1644
L 3631 1138
L 2906 1138
L 2906 0
L 2313 0
L 2313 1138
L 53 1138
L 53 1616
Q 656 2294 1265 3178
Q 1875 4063 2272 4841
L 2906 4841
z
M 741 1644
L 2313 1644
L 2313 3950
Q 1988 3366 1616 2817
Q 1244 2269 741 1644
z
" transform="scale(0.015625)"/>
     </defs>
     <use xlink:href="#MicrosoftYaHei-34"/>
    </g>
   </g>
   <g id="text_7">
    <!-- 3 -->
    <g transform="translate(166.087969 254.776946) scale(0.1 -0.1)">
     <defs>
      <path id="MicrosoftYaHei-33" d="M 447 809
Q 944 425 1569 425
Q 2069 425 2361 670
Q 2653 916 2653 1328
Q 2653 2247 1338 2247
L 934 2247
L 934 2753
L 1319 2753
Q 2484 2753 2484 3616
Q 2484 4413 1594 4413
Q 1084 4413 634 4069
L 634 4647
Q 1109 4922 1744 4922
Q 2363 4922 2738 4598
Q 3113 4275 3113 3759
Q 3113 2809 2144 2538
L 2144 2525
Q 2669 2469 2973 2155
Q 3278 1841 3278 1372
Q 3278 719 2808 319
Q 2338 -81 1556 -81
Q 869 -81 447 175
L 447 809
z
" transform="scale(0.015625)"/>
     </defs>
     <use xlink:href="#MicrosoftYaHei-33"/>
    </g>
   </g>
  </g>
 </g>
 <defs>
  <clipPath id="p32f1fa179a">
   <rect x="7.2" y="7.2" width="323.64" height="266.112"/>
  </clipPath>
 </defs>

</g>
</svg>
