<svg xmlns="http://www.w3.org/2000/svg" width="800" height="445" viewBox="0 0 800 445"><style>text{font-family:"Noto Sans CJK SC","Microsoft YaHei",sans-serif;fill:#172033} .v{font-family:Georgia,serif;font-size:16px;font-weight:600} .small{font-size:14px} .cap{font-size:16px;font-weight:600} .node{fill:white;stroke:#172033;stroke-width:1.8} .edge{stroke:#172033;stroke-width:1.8;fill:none} .arrow{stroke:#172033;stroke-width:1.8;fill:none;marker-end:url(#a)}</style><defs><marker id="a" markerWidth="8" markerHeight="8" refX="7" refY="4" orient="auto"><path d="M0 0L8 4L0 8Z" fill="#172033"/></marker></defs><rect width="100%" height="100%" fill="white"/><text x="130" y="35" class="small" text-anchor="middle">(a) 堆</text><path class="edge" d="M130 55 L70 107"/><path class="edge" d="M130 55 L190 107"/><path class="edge" d="M70 107 L38 159"/><path class="edge" d="M70 107 L100 159"/><path class="edge" d="M190 107 L160 159"/><path class="edge" d="M190 107 L222 159"/><circle class="node" cx="130" cy="55" r="15"/><text x="130" y="60" class="v" text-anchor="middle">13</text><circle class="node" cx="70" cy="107" r="15"/><text x="70" y="112" class="v" text-anchor="middle">38</text><circle class="node" cx="190" cy="107" r="15"/><text x="190" y="112" class="v" text-anchor="middle">27</text><circle class="node" cx="38" cy="159" r="15"/><text x="38" y="164" class="v" text-anchor="middle">49</text><circle class="node" cx="100" cy="159" r="15"/><text x="100" y="164" class="v" text-anchor="middle">76</text><circle class="node" cx="160" cy="159" r="15"/><text x="160" y="164" class="v" text-anchor="middle">65</text><circle class="node" cx="222" cy="159" r="15"/><text x="222" y="164" class="v" text-anchor="middle">49</text><circle class="node" cx="22" cy="211" r="15"/><text x="22" y="216" class="v" text-anchor="middle">97</text><text x="390" y="35" class="small" text-anchor="middle">(b) 13 与 97 交换</text><path class="edge" d="M390 55 L330 107"/><path class="edge" d="M390 55 L450 107"/><path class="edge" d="M330 107 L298 159"/><path class="edge" d="M330 107 L360 159"/><path class="edge" d="M450 107 L420 159"/><path class="edge" d="M450 107 L482 159"/><circle class="node" cx="390" cy="55" r="15"/><text x="390" y="60" class="v" text-anchor="middle">97</text><circle class="node" cx="330" cy="107" r="15"/><text x="330" y="112" class="v" text-anchor="middle">38</text><circle class="node" cx="450" cy="107" r="15"/><text x="450" y="112" class="v" text-anchor="middle">27</text><circle class="node" cx="298" cy="159" r="15"/><text x="298" y="164" class="v" text-anchor="middle">49</text><circle class="node" cx="360" cy="159" r="15"/><text x="360" y="164" class="v" text-anchor="middle">76</text><circle class="node" cx="420" cy="159" r="15"/><text x="420" y="164" class="v" text-anchor="middle">65</text><circle class="node" cx="482" cy="159" r="15"/><text x="482" y="164" class="v" text-anchor="middle">49</text><circle class="node" cx="282" cy="211" r="15"/><text x="282" y="216" class="v" text-anchor="middle">13</text><text x="650" y="35" class="small" text-anchor="middle">(c) 调整后的新堆</text><path class="edge" d="M650 55 L590 107"/><path class="edge" d="M650 55 L710 107"/><path class="edge" d="M590 107 L558 159"/><path class="edge" d="M590 107 L620 159"/><path class="edge" d="M710 107 L680 159"/><path class="edge" d="M710 107 L742 159"/><circle class="node" cx="650" cy="55" r="15"/><text x="650" y="60" class="v" text-anchor="middle">27</text><circle class="node" cx="590" cy="107" r="15"/><text x="590" y="112" class="v" text-anchor="middle">38</text><circle class="node" cx="710" cy="107" r="15"/><text x="710" y="112" class="v" text-anchor="middle">49</text><circle class="node" cx="558" cy="159" r="15"/><text x="558" y="164" class="v" text-anchor="middle">49</text><circle class="node" cx="620" cy="159" r="15"/><text x="620" y="164" class="v" text-anchor="middle">76</text><circle class="node" cx="680" cy="159" r="15"/><text x="680" y="164" class="v" text-anchor="middle">65</text><circle class="node" cx="742" cy="159" r="15"/><text x="742" y="164" class="v" text-anchor="middle">97</text><circle class="node" cx="542" cy="211" r="15"/><text x="542" y="216" class="v" text-anchor="middle">13</text><text x="390" y="235" class="small" text-anchor="middle">(d) 再调整建成的新堆</text><path class="edge" d="M390 255 L330 307"/><path class="edge" d="M390 255 L450 307"/><path class="edge" d="M330 307 L298 359"/><path class="edge" d="M330 307 L360 359"/><path class="edge" d="M450 307 L420 359"/><path class="edge" d="M450 307 L482 359"/><circle class="node" cx="390" cy="255" r="15"/><text x="390" y="260" class="v" text-anchor="middle">38</text><circle class="node" cx="330" cy="307" r="15"/><text x="330" y="312" class="v" text-anchor="middle">49</text><circle class="node" cx="450" cy="307" r="15"/><text x="450" y="312" class="v" text-anchor="middle">49</text><circle class="node" cx="298" cy="359" r="15"/><text x="298" y="364" class="v" text-anchor="middle">97</text><circle class="node" cx="360" cy="359" r="15"/><text x="360" y="364" class="v" text-anchor="middle">76</text><circle class="node" cx="420" cy="359" r="15"/><text x="420" y="364" class="v" text-anchor="middle">65</text><circle class="node" cx="482" cy="359" r="15"/><text x="482" y="364" class="v" text-anchor="middle">27</text><circle class="node" cx="282" cy="411" r="15"/><text x="282" y="416" class="v" text-anchor="middle">13</text></svg>