<svg xmlns="http://www.w3.org/2000/svg" width="800" height="305" viewBox="0 0 800 305"><style>text{font-family:Arial,'Microsoft YaHei',sans-serif;font-size:16px} .n{fill:#fff;stroke:#111;stroke-width:2} .x{fill:#fff;stroke:#111;stroke-width:2} .e{stroke:#111;stroke-width:2;fill:none} .d{stroke:#111;stroke-width:2;stroke-dasharray:6 4;fill:none} .b{fill:#fff;stroke:#111;stroke-width:2}</style><path class="e" d="M390 35 L245 87"/><path class="d" d="M390 35 L535 87"/><path class="e" d="M245 87 L175 139"/><path class="e" d="M245 87 L315 139"/><path class="e" d="M535 87 L465 139"/><path class="d" d="M535 87 L605 139"/><path class="e" d="M175 139 L220 191"/><path class="e" d="M315 139 L360 191"/><path class="e" d="M465 139 L510 191"/><path class="e" d="M605 139 L650 191"/><circle class="n" cx="390" cy="35" r="17"/><text x="390" y="41" text-anchor="middle">6</text><circle class="n" cx="245" cy="87" r="17"/><text x="245" y="93" text-anchor="middle">3</text><circle class="n" cx="535" cy="87" r="17"/><text x="535" y="93" text-anchor="middle">9</text><circle class="n" cx="175" cy="139" r="17"/><text x="175" y="145" text-anchor="middle">1</text><circle class="n" cx="315" cy="139" r="17"/><text x="315" y="145" text-anchor="middle">4</text><circle class="n" cx="465" cy="139" r="17"/><text x="465" y="145" text-anchor="middle">7</text><circle class="n" cx="605" cy="139" r="17"/><text x="605" y="145" text-anchor="middle">10</text><circle class="n" cx="220" cy="191" r="17"/><text x="220" y="197" text-anchor="middle">2</text><circle class="n" cx="360" cy="191" r="17"/><text x="360" y="197" text-anchor="middle">5</text><circle class="n" cx="510" cy="191" r="17"/><text x="510" y="197" text-anchor="middle">8</text><circle class="n" cx="650" cy="191" r="17"/><text x="650" y="197" text-anchor="middle">11</text><rect class="b" x="118" y="177" width="44" height="26"/><text x="140" y="196" text-anchor="middle">−1</text><rect class="b" x="153" y="229" width="44" height="26"/><text x="175" y="248" text-anchor="middle">1—2</text><rect class="b" x="198" y="229" width="44" height="26"/><text x="220" y="248" text-anchor="middle">2—3</text><rect class="b" x="253" y="177" width="44" height="26"/><text x="275" y="196" text-anchor="middle">3—4</text><rect class="b" x="293" y="229" width="44" height="26"/><text x="315" y="248" text-anchor="middle">4—5</text><rect class="b" x="338" y="229" width="44" height="26"/><text x="360" y="248" text-anchor="middle">5—6</text><rect class="b" x="408" y="177" width="44" height="26"/><text x="430" y="196" text-anchor="middle">6—7</text><rect class="b" x="488" y="229" width="44" height="26"/><text x="510" y="248" text-anchor="middle">7—8</text><rect class="b" x="533" y="229" width="44" height="26"/><text x="555" y="248" text-anchor="middle">8—9</text><rect class="b" x="568" y="177" width="44" height="26"/><text x="590" y="196" text-anchor="middle">9—10</text><rect class="b" x="583" y="229" width="44" height="26"/><text x="605" y="248" text-anchor="middle">10—11</text><rect class="b" x="668" y="229" width="44" height="26"/><text x="690" y="248" text-anchor="middle">11—</text><text x="390" y="282" text-anchor="middle">图 9.3　加入外部结点的判定树和查找 85 的过程（虚线）</text></svg>